<svg width="61" height="61" viewBox="0 0 61 61" fill="none" xmlns="http://www.w3.org/2000/svg">
<rect width="60.7332" height="60.7332" rx="16" fill="#08472B"/>
<path d="M43.2934 39.3358C43.2934 39.8334 43.1867 40.3449 42.9601 40.8424C42.7334 41.34 42.4401 41.81 42.0534 42.2523C41.4001 42.9987 40.6801 43.5378 39.8667 43.8833C39.0667 44.2289 38.2001 44.4085 37.2667 44.4085C35.9067 44.4085 34.4534 44.0768 32.9201 43.3995C31.3867 42.7223 29.8534 41.81 28.3334 40.6628C26.8001 39.5017 25.3467 38.2163 23.9601 36.7926C22.5867 35.3551 21.3467 33.8485 20.2401 32.2728C19.1467 30.6971 18.2667 29.1213 17.6267 27.5594C16.9867 25.9837 16.6667 24.4771 16.6667 23.0396C16.6667 22.0997 16.8267 21.2013 17.1467 20.372C17.4667 19.5288 17.9734 18.7548 18.6801 18.0637C19.5334 17.1929 20.4667 16.7644 21.4534 16.7644C21.8267 16.7644 22.2001 16.8473 22.5334 17.0132C22.8801 17.1791 23.1867 17.4279 23.4267 17.7872L26.5201 22.3071C26.7601 22.6526 26.9334 22.9705 27.0534 23.2746C27.1734 23.5649 27.2401 23.8551 27.2401 24.1177C27.2401 24.4495 27.1467 24.7812 26.9601 25.0991C26.7867 25.417 26.5334 25.7487 26.2134 26.0805L25.2001 27.1724C25.0534 27.3245 24.9867 27.5042 24.9867 27.7253C24.9867 27.8359 25.0001 27.9326 25.0267 28.0432C25.0667 28.1538 25.1067 28.2367 25.1334 28.3197C25.3734 28.7758 25.7867 29.3701 26.3734 30.0889C26.9734 30.8076 27.6134 31.5402 28.3067 32.2728C29.0267 33.0053 29.7201 33.6826 30.4267 34.3046C31.1201 34.9128 31.6934 35.3274 32.1467 35.5762C32.2134 35.6039 32.2934 35.6454 32.3867 35.6868C32.4934 35.7283 32.6001 35.7421 32.7201 35.7421C32.9467 35.7421 33.1201 35.6592 33.2667 35.5071L34.2801 34.4705C34.6134 34.1249 34.9334 33.8623 35.2401 33.6964C35.5467 33.5029 35.8534 33.4062 36.1867 33.4062C36.4401 33.4062 36.7067 33.4615 37.0001 33.5859C37.2934 33.7103 37.6001 33.8899 37.9334 34.1249L42.3467 37.3731C42.6934 37.6219 42.9334 37.9122 43.0801 38.2577C43.2134 38.6033 43.2934 38.9488 43.2934 39.3358Z" stroke="white" stroke-width="2.5" stroke-miterlimit="10"/>
</svg>
