<svg width="34" height="35" viewBox="0 0 34 35" fill="none" xmlns="http://www.w3.org/2000/svg">
<path d="M30.6519 26.5108C30.6519 27.0314 30.5403 27.5666 30.3031 28.0872C30.0659 28.6079 29.759 29.0997 29.3544 29.5625C28.6708 30.3435 27.9174 30.9075 27.0663 31.2691C26.2292 31.6307 25.3224 31.8187 24.3458 31.8187C22.9227 31.8187 21.402 31.4716 19.7975 30.7629C18.1931 30.0542 16.5887 29.0997 14.9982 27.8992C13.3937 26.6843 11.873 25.3393 10.4221 23.8496C8.98504 22.3454 7.68754 20.769 6.52956 19.1202C5.38553 17.4714 4.46472 15.8226 3.79504 14.1883C3.12537 12.5395 2.79053 10.9631 2.79053 9.4589C2.79053 8.47542 2.95795 7.53532 3.29278 6.66754C3.62762 5.7853 4.15778 4.97537 4.89722 4.25222C5.79012 3.34105 6.76673 2.8927 7.79915 2.8927C8.1898 2.8927 8.58044 2.97948 8.92923 3.15303C9.29197 3.32659 9.61286 3.58692 9.86399 3.96296L13.1008 8.69236C13.3519 9.05394 13.5333 9.38659 13.6588 9.70477C13.7844 10.0085 13.8541 10.3122 13.8541 10.587C13.8541 10.9341 13.7565 11.2812 13.5612 11.6139C13.3798 11.9465 13.1147 12.2937 12.7799 12.6408L11.7196 13.7833C11.5661 13.9424 11.4963 14.1305 11.4963 14.3619C11.4963 14.4776 11.5103 14.5788 11.5382 14.6945C11.58 14.8102 11.6219 14.897 11.6498 14.9838C11.9009 15.461 12.3334 16.083 12.9473 16.835C13.5751 17.5871 14.2448 18.3536 14.9703 19.1202C15.7237 19.8867 16.4491 20.5954 17.1886 21.2462C17.9141 21.8826 18.514 22.3165 18.9883 22.5768C19.0581 22.6058 19.1418 22.6492 19.2395 22.6925C19.3511 22.7359 19.4627 22.7504 19.5883 22.7504C19.8254 22.7504 20.0068 22.6636 20.1603 22.5045L21.2206 21.4198C21.5694 21.0582 21.9042 20.7834 22.2251 20.6099C22.546 20.4074 22.8669 20.3062 23.2157 20.3062C23.4808 20.3062 23.7598 20.364 24.0667 20.4942C24.3737 20.6243 24.6945 20.8124 25.0433 21.0582L29.6613 24.457C30.0241 24.7174 30.2752 25.0211 30.4287 25.3827C30.5682 25.7442 30.6519 26.1058 30.6519 26.5108Z" stroke="black" stroke-width="2.5" stroke-miterlimit="10"/>
</svg>
