<svg width="24" height="24" viewBox="0 0 24 24" fill="none" xmlns="http://www.w3.org/2000/svg">
<path d="M20.4233 17.7135L15 10.2563V3H16.5V1.5H7.50002V3H9.00002V10.2563L3.57677 17.7135C3.24965 18.1631 3.05328 18.6944 3.0094 19.2487C2.96552 19.8029 3.07584 20.3585 3.32815 20.854C3.58046 21.3495 3.96492 21.7655 4.43899 22.056C4.91307 22.3465 5.45827 22.5001 6.01427 22.5H17.985C18.541 22.5001 19.0862 22.3465 19.5603 22.056C20.0344 21.7655 20.4188 21.3495 20.6711 20.854C20.9235 20.3585 21.0338 19.8029 20.9899 19.2487C20.946 18.6944 20.7496 18.1631 20.4225 17.7135M10.5 10.7437V3H13.5V10.7437L15.5048 13.5H8.49527L10.5 10.7437ZM17.9858 21H6.01502C5.73587 20.9997 5.46222 20.9223 5.22429 20.7763C4.98635 20.6303 4.79339 20.4214 4.66669 20.1726C4.53999 19.9239 4.48448 19.645 4.50628 19.3666C4.52809 19.0883 4.62637 18.8215 4.79027 18.5955L7.40477 15H16.5953L19.2105 18.5955C19.3744 18.8215 19.4727 19.0883 19.4945 19.3666C19.5163 19.645 19.4608 19.9239 19.3341 20.1726C19.2074 20.4214 19.0144 20.6303 18.7765 20.7763C18.5386 20.9223 18.2649 20.9997 17.9858 21Z" fill="#111416"/>
</svg>
