<svg width="10" height="17" viewBox="0 0 10 17" fill="none" xmlns="http://www.w3.org/2000/svg">
<path fillRule="evenodd" clipRule="evenodd" d="M0.366005 9.22036C0.131666 8.98595 2.19345e-05 8.66807 2.19345e-05 8.33661C2.19345e-05 8.00515 0.131666 7.68727 0.366005 7.45286L7.43725 0.381611C7.55256 0.262223 7.69049 0.166995 7.843 0.101484C7.9955 0.0359723 8.15953 0.00148947 8.3255 4.71955e-05C8.49148 -0.00139507 8.65608 0.0302324 8.8097 0.0930835C8.96332 0.155935 9.10288 0.248751 9.22025 0.366117C9.33761 0.483483 9.43043 0.623047 9.49328 0.776668C9.55613 0.930288 9.58776 1.09489 9.58632 1.26086C9.58488 1.42684 9.55039 1.59086 9.48488 1.74337C9.41937 1.89587 9.32414 2.0338 9.20475 2.14911L3.01725 8.33661L9.20475 14.5241C9.43245 14.7599 9.55845 15.0756 9.5556 15.4034C9.55275 15.7311 9.42129 16.0446 9.18953 16.2764C8.95777 16.5081 8.64425 16.6396 8.31651 16.6425C7.98876 16.6453 7.67301 16.5193 7.43725 16.2916L0.366005 9.22036Z" fill="black"/>
</svg>
