<svg width="26" height="26" viewBox="0 0 26 26" fill="none" xmlns="http://www.w3.org/2000/svg">
<path fill-rule="evenodd" clip-rule="evenodd" d="M6.5 3.25C6.34924 3.25001 6.20144 3.29196 6.07316 3.37117C5.94488 3.45037 5.84117 3.56371 5.77362 3.6985L3.33612 8.5735C3.2795 8.68648 3.25001 8.81112 3.25 8.9375V12.1875C3.25 12.403 3.3356 12.6097 3.48798 12.762C3.64035 12.9144 3.84701 13 4.0625 13H4.875V21.9375C4.875 22.153 4.9606 22.3597 5.11298 22.512C5.26535 22.6644 5.47201 22.75 5.6875 22.75H20.3125C20.528 22.75 20.7347 22.6644 20.887 22.512C21.0394 22.3597 21.125 22.153 21.125 21.9375V13H21.9375C22.153 13 22.3597 12.9144 22.512 12.762C22.6644 12.6097 22.75 12.403 22.75 12.1875V8.9375C22.75 8.81112 22.7205 8.68648 22.6639 8.5735L20.2264 3.6985C20.1588 3.56371 20.0551 3.45037 19.9268 3.37117C19.7986 3.29196 19.6508 3.25001 19.5 3.25H6.5ZM21.125 9.12925V11.375H17.875V9.75H16.25V11.375H13.8125V9.75H12.1875V11.375H9.75V9.75H8.125V11.375H4.875V9.12925L7.00213 4.875H18.9979L21.125 9.12925ZM10.5625 16.25H12.1875V14.625H10.5625V16.25ZM13.8125 16.25H15.4375V14.625H13.8125V16.25ZM12.1875 18.6875H10.5625V17.0625H12.1875V18.6875ZM13.8125 18.6875H15.4375V17.0625H13.8125V18.6875Z" fill="#111416"/>
</svg>
