<svg width="10" height="17" viewBox="0 0 10 17" fill="none" xmlns="http://www.w3.org/2000/svg">
<path fillRule="evenodd" clipRule="evenodd" d="M9.22036 7.42213C9.4547 7.65654 9.58634 7.97442 9.58634 8.30588C9.58634 8.63733 9.4547 8.95522 9.22036 9.18963L2.14911 16.2609C2.0338 16.3803 1.89587 16.4755 1.74337 16.541C1.59086 16.6065 1.42684 16.641 1.26086 16.6424C1.09489 16.6439 0.930289 16.6123 0.776668 16.5494C0.623048 16.4866 0.483482 16.3937 0.366116 16.2764C0.24875 16.159 0.155934 16.0194 0.0930829 15.8658C0.0302318 15.7122 -0.00139507 15.5476 4.71963e-05 15.3816C0.00148947 15.2157 0.0359723 15.0516 0.101484 14.8991C0.166995 14.7466 0.262222 14.6087 0.38161 14.4934L6.56911 8.30588L0.38161 2.11837C0.153912 1.88262 0.0279194 1.56687 0.0307674 1.23913C0.0336155 0.911379 0.165076 0.597864 0.396837 0.366104C0.628597 0.134342 0.942113 0.0028801 1.26986 3.24249e-05C1.5976 -0.00281525 1.91336 0.123178 2.14911 0.350876L9.22036 7.42213Z" fill="black"/>
</svg>
