<svg width="45" height="45" viewBox="0 0 45 45" fill="none" xmlns="http://www.w3.org/2000/svg">
<path d="M24.1688 11.0254H9.58122C6.37497 11.0254 3.75 13.6504 3.75 16.8566V38.1566C3.75 40.8754 5.7 42.0379 8.08125 40.7066L15.45 36.6004C16.2375 36.1691 17.5125 36.1691 18.2812 36.6004L25.65 40.7066C28.0312 42.0379 29.9812 40.8754 29.9812 38.1566V16.8566C30 13.6504 27.375 11.0254 24.1688 11.0254Z" stroke="white" stroke-width="3" stroke-linecap="round" stroke-linejoin="round"/>
<path d="M30 16.8566V38.1566C30 40.8754 28.05 42.0191 25.6688 40.7066L18.3 36.6004C17.5125 36.1691 16.2375 36.1691 15.45 36.6004L8.08125 40.7066C5.7 42.0191 3.75 40.8754 3.75 38.1566V16.8566C3.75 13.6504 6.37497 11.0254 9.58122 11.0254H24.1688C27.375 11.0254 30 13.6504 30 16.8566Z" stroke="white" stroke-width="3" stroke-linecap="round" stroke-linejoin="round"/>
<path d="M41.25 9.58122V30.8813C41.25 33.6 39.3 34.7437 36.9188 33.4312L30 29.5687V16.8562C30 13.65 27.375 11.025 24.1688 11.025H15V9.58122C15 6.37497 17.625 3.75 20.8312 3.75H35.4188C38.625 3.75 41.25 6.37497 41.25 9.58122Z" stroke="white" stroke-width="3" stroke-linecap="round" stroke-linejoin="round"/>
</svg>
